<svg viewBox="-1.125 -1.125 2.25 2.25" xmlns="http://www.w3.org/2000/svg"><linearGradient id="a" x1="0" y1="1" x2=".782" y2=".623" gradientUnits="userSpaceOnUse"><stop offset="0%" stop-color="hsl(-90, 100%, 50%)"/><stop offset="100%" stop-color="hsl(-38.57142857142858, 100%, 50%)"/></linearGradient><path stroke="url(#a)" stroke-width=".25" stroke-linecap="round" d="M0 1 .782.623"/><linearGradient id="b" x1=".782" y1=".623" x2=".975" y2="-.223" gradientUnits="userSpaceOnUse"><stop offset="0%" stop-color="hsl(-38.57142857142858, 100%, 50%)"/><stop offset="100%" stop-color="hsl(12.857142857142847, 100%, 50%)"/></linearGradient><path stroke="url(#b)" stroke-width=".25" stroke-linecap="round" d="m.782.623.193-.846"/><linearGradient id="c" x1=".975" y1="-.223" x2=".434" y2="-.901" gradientUnits="userSpaceOnUse"><stop offset="0%" stop-color="hsl(12.857142857142847, 100%, 50%)"/><stop offset="100%" stop-color="hsl(64.28571428571428, 100%, 50%)"/></linearGradient><path stroke="url(#c)" stroke-width=".25" stroke-linecap="round" d="M.975-.223.434-.901"/><linearGradient id="d" x1=".434" y1="-.901" x2="-.434" y2="-.901" gradientUnits="userSpaceOnUse"><stop offset="0%" stop-color="hsl(64.28571428571428, 100%, 50%)"/><stop offset="100%" stop-color="hsl(115.7142857142857, 100%, 50%)"/></linearGradient><path stroke="url(#d)" stroke-width=".25" stroke-linecap="round" d="M.434-.901h-.868"/><linearGradient id="e" x1="-.434" y1="-.901" x2="-.975" y2="-.223" gradientUnits="userSpaceOnUse"><stop offset="0%" stop-color="hsl(115.7142857142857, 100%, 50%)"/><stop offset="100%" stop-color="hsl(167.14285714285717, 100%, 50%)"/></linearGradient><path stroke="url(#e)" stroke-width=".25" stroke-linecap="round" d="m-.434-.901-.541.678"/><linearGradient id="f" x1="-.975" y1="-.223" x2="-.782" y2=".623" gradientUnits="userSpaceOnUse"><stop offset="0%" stop-color="hsl(167.14285714285717, 100%, 50%)"/><stop offset="100%" stop-color="hsl(218.57142857142856, 100%, 50%)"/></linearGradient><path stroke="url(#f)" stroke-width=".25" stroke-linecap="round" d="m-.975-.223.193.846"/><linearGradient id="g" x1="-.782" y1=".623" x2="0" y2="1" gradientUnits="userSpaceOnUse"><stop offset="0%" stop-color="hsl(218.57142857142856, 100%, 50%)"/><stop offset="100%" stop-color="hsl(-90, 100%, 50%)"/></linearGradient><path stroke="url(#g)" stroke-width=".25" stroke-linecap="round" d="M-.782.623 0 1"/><path class="mouse" fill="none" stroke="hsl(-90, 100%, 50%)" stroke-width=".25" stroke-linecap="round" stroke-linejoin="round" d="M0 1-.099.882-.18.768-.25.659-.302.557l-.04-.095-.029-.088-.019-.08L-.4.222-.401.158-.398.1l.01-.05.012-.043.017-.036.018-.03.02-.025.022-.02.021-.016.022-.011.02-.008.02-.005.02-.003h.018l.017.001.015.003.014.004.012.004.011.006.01.006.008.006.007.006.006.006.005.005.005.006.003.005.003.005.002.005.001.004.001.004v.004l.001.003v.01l-.001.001v.002H-.06v.002h0l-.001.001h0v.001h0v.001h0l.001.001h.001l.001.001h.001l.001.001h.001l.001.001h.001v.001h.001v.001h.002v.001h.001v.001h.001l.001.001h0l.001.001h0l.001.001h.001v.001h.001v.001h.001l.001.001h0l.001.001h.001v.001h.001v.001h.001l.001.001h.001v.001h.001v.001h.001v.001h.001l.001.001h.001v.001h.001v.001h.001v.001h.001l.001.001h.001v.001h.001v.001h.001v.001h.001l.001.001h.001v.001h.001v.001h.001v.001h.001l.001.001h.001v.001h.001v.001h.001v.001h.001l.001.001h.001v.001h.001v.001h.001v.001h.001"/><path class="mouse" fill="none" stroke="hsl(-38.57142857142858, 100%, 50%)" stroke-width=".25" stroke-linecap="round" stroke-linejoin="round" d="M.782.623.736.481.686.366.632.276.581.206.53.15.48.111.436.08.394.058.356.044.322.035.292.031.264.029H.24L.22.031.2.035.186.039.172.043.161.047.15.052.142.056.135.06.13.063.125.066.12.07H.117L.114.073.11.075v.001L.107.077.106.078H.104L.103.08H.099h0L.096.077h0-.001 0L.094.075h0L.091.073h0H.09h0V.071L.087.07h0L.086.068H.085V.066H.082v0h0L.08.064v0H.078V.062h0L.077.06h0-.002L.074.059h0L.072.057h0V.056H.07V.055H.069h0L.067.053h0V.052H.065V.051h0L.063.05h0-.002 0V.048H.06V.047h0L.058.046h0L.057.045h0-.002V.044h0L.054.043h0L.053.042h0L.052.041h0-.001V.04H.05v0h0L.048.038h0L.047.037h0-.001V.036H.045h0L.044.035h0-.001V.034h0-.001V.033H.041V.032H.04h0V.031h0-.001V.03h0-.001v0h0-.001V.028H.035h0L.034.027h0-.001V.026h0-.001V.025h0-.001 0V.024H.03h0V.023h0-.001V.022h0-.001V.021h0-.001 0V.02H.025h0v0H.024h0-.001V.018h0-.001 0V.017h0-.001 0V.016H.02h0V.015h0-.001V.014h0-.001 0V.013h0-.001 0V.012h0-.001 0V.011H.014h0-.001V.01h0-.001 0v0h0-.001 0V.008h0H.01h0V.007h0-.001 0V.006h0-.001 0V.005h0"/><path class="mouse" fill="none" stroke="hsl(12.857142857142847, 100%, 50%)" stroke-width=".25" stroke-linecap="round" stroke-linejoin="round" d="m.975-.223-.094.12-.095.095L.69.067.6.125.512.166.428.195.35.212.278.22H.212L.152.212.098.202.051.187.01.169l-.036-.02-.03-.02-.025-.02-.02-.021-.017-.02-.013-.02L-.14.03-.146.013-.15-.002l-.001-.014v-.012l.001-.01.003-.01.004-.008.004-.006.005-.006.005-.004.006-.003.005-.002.006-.002h.019l.005.001.004.002.003.001.003.002.003.002.003.002.002.002.002.002.002.001.001.002.002.002v.001l.002.002v.001l.001.002.001.001v.001l.001.001v.002h.001v.002h.001v.002h.001v.001h.001v.001h.001v.001h.001l.001.001h0l.001.001h.001v.001h.001l.001.001h.001v.001h.001v.001h.001l.001.001h.001v.001h.001v.001h.001l.001.001h0l.001.001h.001v.001h.001v.001h.001l.001.001h.001v.001h.001v.001h.001v.001h.001v.001h.002v.001h.001v.001h.001v.001h.001l.001.001h.001v.001h.001v.001h.001v.001h.001l.001.001h.001v.001h.001v.001h.001v.001h.001l.001.001h.001v.001h.001v.001h.001v.001h.001l.001.001h.001v.001h.001v.001h.001v.001h.001"/><path class="mouse" fill="none" stroke="hsl(64.28571428571428, 100%, 50%)" stroke-width=".25" stroke-linecap="round" stroke-linejoin="round" d="m.434-.901-.112.152-.086.135-.066.118-.05.103-.035.088-.024.076-.016.064-.01.054-.004.045-.001.037.002.031.004.025.005.02.006.015.006.013.006.009.006.007.005.005.006.003.004.002.004.001h.01L.096.1h.002L.099.097.1.096V.094L.102.093V.085L.1.084V.082H.098V.08L.097.079V.078L.094.077V.076L.092.075h0V.072H.09V.071L.089.07H.088V.068H.085v0H.083V.066h0-.001V.064H.08h0L.078.062h0L.075.06h0L.074.059h0L.072.057h0V.056H.07V.055H.069h0L.067.053h0V.052H.065V.051h0L.063.05h0-.002 0V.048H.06V.047h0L.058.046h0L.057.045h0-.002V.044h0L.054.043h0L.053.042h0L.052.041h0-.001V.04H.05v0h0L.048.038h0L.047.037h0-.001V.036H.045h0L.044.035h0-.001V.034h0-.001V.033H.041V.032H.04h0V.031h0-.001V.03h0-.001v0h0-.001V.028H.035h0L.034.027h0-.001V.026h0-.001V.025h0-.001 0V.024H.03h0V.023h0-.001V.022h0-.001V.021h0-.001 0V.02H.025h0v0H.024h0-.001V.018h0-.001 0V.017h0-.001 0V.016H.02h0V.015h0-.001V.014h0-.001 0V.013h0-.001 0V.012h0-.001 0V.011H.014h0-.001V.01h0-.001 0v0h0-.001 0V.008h0H.01h0V.007h0-.001 0V.006h0-.001 0V.005h0"/><path class="mouse" fill="none" stroke="hsl(115.7142857142857, 100%, 50%)" stroke-width=".25" stroke-linecap="round" stroke-linejoin="round" d="m-.434-.901.139.073.115.077.095.078.077.077.06.075.045.07.033.067.022.062.012.056.005.05-.001.044-.007.038L.15-.1l-.014.028L.12-.05l-.016.02-.018.015-.018.01L.05.004.033.008.016.01h-.03L-.027.009-.038.006l-.01-.004-.01-.004-.008-.005-.006-.005-.006-.005-.004-.005-.003-.004-.003-.005-.002-.004V-.04l-.001-.003v-.006l.001-.003.001-.002.002-.001.001-.001.002-.001.002-.001h.012l.002.001h.001l.001.002h.002v.001h.002v.002h.002v.001l.002.001h0l.001.002h.001v.002h.002v.001h.001v.001h0l.001.001h0l.001.001h0l.001.001h0l.001.001h0l.001.001h.001v.001h.001l.001.001h0l.001.001h.001v.001h.001v.001h.001l.001.001h0l.001.001h.001v.001h.001v.001h.001l.001.001h.001v.001h.001v.001h.001v.001h.001l.001.001h.001v.001h.001v.001h.001v.001h.001l.001.001h.001v.001h.001v.001h.001v.001h.001l.001.001h.001v.001h.001v.001h.001v.001h.001l.001.001h.001v.001h.001v.001h.001v.001h.001l.001.001h.001v.001h.001v.001h.001v.001h.001"/><path class="mouse" fill="none" stroke="hsl(167.14285714285717, 100%, 50%)" stroke-width=".25" stroke-linecap="round" stroke-linejoin="round" d="m-.975-.223.059-.07.066-.055.07-.041.073-.03.073-.017.07-.009h.069l.064.006.06.012.055.017.05.02.045.022.04.024.033.025.03.025.025.025.02.025.017.023.013.022.01.021.008.02.005.017.003.016v.037l-.003.01-.003.008-.004.007-.003.006-.004.005-.004.003-.004.003-.004.002-.004.002h-.006L-.06-.04h-.004l-.002-.001h-.002v-.001L-.07-.044h0v-.002h0v-.002h.001l.001-.001h.005v.001h.002l.001.001h.001l.001.001h0l.001.001h.001v.001h.001l.001.001h0l.001.001h0l.001.001h.001v.001h.001l.001.001h0v.001h.001v.001h.001l.001.001h.001v.001h.001v.001h.001v.001h.001l.001.001h0l.001.001h.001v.001h.001v.001h.001v.001h.002v.001h.001v.001h.001v.001h.001l.001.001h.001v.001h.001v.001h.001v.001h.001l.001.001h.001v.001h.001v.001h.001v.001h.001l.001.001h.001v.001h.001v.001h.001v.001h.001l.001.001h.001v.001h.001v.001h.001v.001h.001l.001.001h.001v.001h.001v.001h.001v.001h.001"/><path class="mouse" fill="none" stroke="hsl(218.57142857142856, 100%, 50%)" stroke-width=".25" stroke-linecap="round" stroke-linejoin="round" d="M-.782.623-.629.61l.133-.023.114-.031.097-.036.083-.037.068-.038.058-.038.047-.036.038-.033.032-.032.024-.029.02-.026L.1.228.11.207.12.189.125.172.13.158.131.146l.001-.01V.119L.13.112.129.107.127.102.125.098.123.095.121.092.119.089.117.087.115.086.113.084.11.083.109.082.107.08H.105L.104.079H.102L.101.076H.098h0L.095.074h0L.094.072H.092L.09.071V.07H.088L.087.069H.086V.067H.083V.065H.081L.08.064v0H.078V.062h0-.001V.06H.074v0-.001h0L.072.057h0V.056H.07V.055H.069h0L.067.053h0V.052H.065V.051h0L.063.05h0-.002 0V.048H.06V.047h0L.058.046h0L.057.045h0-.002V.044h0L.054.043h0L.053.042h0L.052.041h0-.001V.04H.05v0h0L.048.038h0L.047.037h0-.001V.036H.045h0L.044.035h0-.001V.034h0-.001V.033H.041V.032H.04h0V.031h0-.001V.03h0-.001v0h0-.001V.028H.035h0L.034.027h0-.001V.026h0-.001V.025h0-.001 0V.024H.03h0V.023h0-.001V.022h0-.001V.021h0-.001 0V.02H.025h0v0H.024h0-.001V.018h0-.001 0V.017h0-.001 0V.016H.02h0V.015h0-.001V.014h0-.001 0V.013h0-.001 0V.012h0-.001 0V.011H.014h0-.001V.01h0-.001 0v0h0-.001 0V.008h0H.01h0V.007h0-.001 0V.006h0-.001 0V.005h0"/></svg>